<svg id="레이어_1" data-name="레이어 1" xmlns="http://www.w3.org/2000/svg" viewBox="0 0 325 325"><defs><style>.cls-1{fill:#fff;}.cls-2{fill:#ff7375;}</style></defs><path class="cls-1" d="M162.5,148.5,231.09,30.7a12.94,12.94,0,0,0-6.36-18.5,165.32,165.32,0,0,0-124.66,0,12.94,12.94,0,0,0-6.36,18.5Z"/><path class="cls-2" d="M150.3,155.5,81.71,37.7a13.2,13.2,0,0,0-19.37-3.8A162,162,0,0,0,.11,140.7a13.11,13.11,0,0,0,13,14.8Z"/><path class="cls-1" d="M174.7,155.5H311.88a13.11,13.11,0,0,0,13-14.8A161.81,161.81,0,0,0,262.66,33.9a13.2,13.2,0,0,0-19.37,3.8Z"/><path class="cls-1" d="M174.7,169.5l68.59,117.8a13.2,13.2,0,0,0,19.37,3.8,162,162,0,0,0,62.23-106.8,13.11,13.11,0,0,0-13-14.8Z"/><path class="cls-1" d="M162.5,176.5,93.91,294.3a12.94,12.94,0,0,0,6.36,18.5,165.32,165.32,0,0,0,124.66,0,12.94,12.94,0,0,0,6.36-18.5Z"/><path class="cls-1" d="M150.3,169.5H13.12a13.11,13.11,0,0,0-13,14.8A161.81,161.81,0,0,0,62.34,291.1a13.2,13.2,0,0,0,19.37-3.8Z"/></svg>