<svg width="325" height="325" viewBox="0 0 325 325" fill="none" xmlns="http://www.w3.org/2000/svg">
<path d="M162.328 148.5L230.916 30.7C234.849 23.9 231.924 15.2 224.561 12.2C205.397 4.4 184.317 0 162.228 0C140.138 0 119.159 4.3 99.894 12.2C92.531 15.2 89.6059 23.9 93.5396 30.7L162.328 148.5Z" fill="white"/>
<path d="M150.296 155.5L81.7085 37.7C77.7748 30.9 68.5962 29.1 62.3427 33.9C29.0578 59.4 5.9601 97.4 0.11002 140.7C-0.898614 148.5 5.15319 155.5 13.1214 155.5H150.296Z" fill="white"/>
<path d="M174.705 155.5H311.879C319.847 155.5 325.899 148.5 324.89 140.7C319.04 97.3 295.942 59.4 262.657 33.9C256.404 29.1 247.225 30.9 243.292 37.7L174.705 155.5Z" fill="#FF7375"/>
<path d="M174.705 169.5L243.292 287.3C247.225 294.1 256.404 295.9 262.657 291.1C295.942 265.6 319.04 227.6 324.89 184.3C325.899 176.5 319.847 169.5 311.879 169.5H174.705Z" fill="white"/>
<path d="M162.5 176.5L93.9132 294.3C89.9795 301.1 92.9045 309.8 100.268 312.8C119.432 320.6 140.512 325 162.601 325C184.69 325 205.67 320.7 224.935 312.8C232.298 309.8 235.223 301.1 231.289 294.3L162.5 176.5Z" fill="white"/>
<path d="M150.296 169.5H13.1214C5.15319 169.5 -0.898614 176.5 0.11002 184.3C5.9601 227.7 29.0578 265.6 62.3427 291.1C68.5963 295.9 77.7748 294.1 81.7085 287.3L150.296 169.5Z" fill="white"/>
<path d="M93.6713 100.937C91.6836 108.999 81.2946 113 69.0002 113C56.7058 113 46.3204 108.999 44.3291 100.937" stroke="#141414" stroke-width="0.815571" stroke-miterlimit="10"/>
<path d="M67.9203 88.4034C68.2778 88.399 68.6389 88.3947 69 88.3947C82.8067 88.3947 94 93.221 94 99.1803C94 105.14 82.8067 109.966 69 109.966C55.1933 109.966 44 105.135 44 99.1759C44 96.2599 46.6813 93.6162 51.0428 91.6751" stroke="#141414" stroke-width="0.815571" stroke-miterlimit="10"/>
<path d="M71.0198 95.6975C71.3344 96.343 71.3916 97.2389 71.0091 97.8537C70.2011 99.158 68.7139 99.2722 68.1026 100.55C67.5055 101.446 66.7905 102.351 64.4775 103.023C62.0608 103.725 58.9041 103.501 58.2713 103.475C57.8137 103.457 57.1309 103.774 56.7412 104.05C56.1406 104.472 54.9966 104.138 54.9966 104.138C49.2658 103.326 50.1346 100.774 50.1346 100.774C49.4768 100.194 49.0656 99.2546 49.0049 98.2665C48.9977 98.1743 48.9941 98.0777 48.9941 97.9855C48.9941 96.9183 49.3838 95.9697 49.9916 95.3242C49.9379 95.0519 49.9058 94.7664 49.9058 94.4722C49.9058 92.9132 50.7352 91.6001 51.8756 91.139C51.9292 89.1233 53.2699 87.5116 54.9215 87.5116C55.2325 87.5116 55.5293 87.5687 55.8117 87.6741C55.8224 87.6697 55.8296 87.6653 55.8439 87.6609C56.7769 86.137 58.2534 85.1489 59.9265 85.1489C61.3529 85.1489 62.64 85.8648 63.5659 87.0241C63.9877 86.8353 64.4453 86.7299 64.9208 86.7299C66.9907 86.7299 68.6889 88.6666 68.8891 91.1434C70.0295 91.6045 70.8589 92.9176 70.8589 94.4766C70.8589 94.7708 70.8267 95.0563 70.7731 95.3286C70.7695 95.3242 70.9304 95.5174 71.0198 95.6975Z" stroke="#141414" stroke-width="0.815571" stroke-miterlimit="10"/>
<path d="M64.3559 87.7312C63.8912 89.2771 60.6486 89.8875 57.5205 91.0029C54.3674 91.9867 51.5217 93.2778 50.4384 92.2238C49.3409 91.2577 51.4859 87.1208 56.255 85.5354C61.024 83.9589 64.8743 86.2205 64.3559 87.7312Z" fill="white" stroke="black" stroke-width="0.815571" stroke-miterlimit="10"/>
<path d="M57.7027 87.5109C57.9923 87.3352 58.1675 87.4977 58.1675 87.4977C58.4392 87.8139 58.9504 87.9632 59.2185 87.6602C59.5188 87.3264 59.3615 86.9487 59.2328 86.6369C59.1863 86.5228 59.1577 86.3383 59.2078 86.1275C59.2257 86.0529 59.2328 85.9782 59.2292 85.9036C59.1899 85.135 57.642 84.7003 55.8723 85.3195C54.0991 85.9387 53.0374 87.2737 53.377 87.9325C53.713 88.6044 55.093 88.4902 56.5695 87.9851C56.9985 87.8358 57.406 87.6602 57.7671 87.4713" fill="#F3AE5D"/>
<path d="M57.7027 87.5109C57.9923 87.3352 58.1675 87.4977 58.1675 87.4977C58.4392 87.8139 58.9504 87.9632 59.2185 87.6602C59.5188 87.3264 59.3615 86.9487 59.2328 86.6369C59.1863 86.5228 59.1577 86.3383 59.2078 86.1275C59.2257 86.0529 59.2328 85.9782 59.2292 85.9036C59.1899 85.135 57.642 84.7003 55.8723 85.3195C54.0991 85.9387 53.0374 87.2737 53.377 87.9325C53.713 88.6044 55.093 88.4902 56.5695 87.9851C56.9985 87.8358 57.406 87.6602 57.7671 87.4713" stroke="#050505" stroke-width="0.815571" stroke-miterlimit="10"/>
<path d="M51.2969 90.6517C51.2969 90.6517 52.0441 91.2138 54.4 90.05" stroke="#D5D5D5" stroke-width="0.815571" stroke-miterlimit="10"/>
<path d="M68.1028 100.55C67.5058 101.446 66.7907 102.351 64.4777 103.023C62.061 103.725 58.9436 103.19 58.3144 103.137C55.2363 102.891 55.912 104.261 55.912 104.261C56.0943 104.705 57.3956 105.003 58.2286 105.144C61.3746 105.671 65.0569 105.794 69.0037 105.794C80.3936 105.794 89.6279 102.834 89.6279 99.1801C89.6279 96.0489 82.8461 93.4272 73.7334 92.7421C72.6538 92.663 71.5419 92.6059 70.4087 92.5796C70.6947 93.1241 70.8591 93.7741 70.8591 94.4724C70.8591 94.7666 70.8269 95.052 70.7733 95.3243C70.7733 95.3243 70.9378 95.5219 71.0236 95.6976C71.3382 96.3432 71.3954 97.239 71.0128 97.8539C70.2013 99.1581 68.7141 99.2723 68.1028 100.55Z" fill="#FFA800" stroke="#070707" stroke-width="0.815571" stroke-miterlimit="10"/>
<circle cx="76.75" cy="95.7501" r="1.75" fill="#FF4800"/>
<circle cx="82.75" cy="100.75" r="1.75" fill="#FF4800"/>
<circle cx="71.75" cy="100.75" r="1.75" fill="#FF4800"/>
<path d="M67.6042 104.21C67.9378 104.21 68.2083 103.939 68.2083 103.605C68.2083 103.271 67.9378 103 67.6042 103C67.2705 103 67 103.271 67 103.605C67 103.939 67.2705 104.21 67.6042 104.21Z" fill="#28BB28"/>
<path d="M73.8512 96.7229C74.1849 96.7229 74.4554 96.4521 74.4554 96.1179C74.4554 95.7838 74.1849 95.5129 73.8512 95.5129C73.5176 95.5129 73.2471 95.7838 73.2471 96.1179C73.2471 96.4521 73.5176 96.7229 73.8512 96.7229Z" fill="#28BB28"/>
<path d="M86.5573 99.5019C86.891 99.5019 87.1615 99.231 87.1615 98.8969C87.1615 98.5627 86.891 98.2919 86.5573 98.2919C86.2236 98.2919 85.9531 98.5627 85.9531 98.8969C85.9531 99.231 86.2236 99.5019 86.5573 99.5019Z" fill="#28BB28"/>
<path d="M78.3932 99.3766C78.7269 99.3766 78.9974 99.1058 78.9974 98.7716C78.9974 98.4375 78.7269 98.1666 78.3932 98.1666C78.0596 98.1666 77.7891 98.4375 77.7891 98.7716C77.7891 99.1058 78.0596 99.3766 78.3932 99.3766Z" fill="#28BB28"/>
<path d="M74.9005 103.245C75.2342 103.245 75.5047 102.974 75.5047 102.64C75.5047 102.305 75.2342 102.035 74.9005 102.035C74.5669 102.035 74.2964 102.305 74.2964 102.64C74.2964 102.974 74.5669 103.245 74.9005 103.245Z" fill="#28BB28"/>
<path d="M179.125 45.1708C180.342 45.8409 181.025 46.5973 181.025 47.3989C181.025 54.8686 176.753 61.3065 170.595 64.2623C168.289 65.3681 165.724 65.9889 163.014 65.9889C160.305 65.9889 157.736 65.3681 155.43 64.2623C149.271 61.3065 145 54.8686 145 47.3989C145 46.5973 145.682 45.8409 146.899 45.1708" stroke="#353535" stroke-miterlimit="10"/>
<path d="M155.43 64.2622C155.335 64.4801 155.282 64.7021 155.282 64.9282C155.282 66.8316 158.743 68.3773 163.01 68.3773C167.278 68.3773 170.739 66.8316 170.739 64.9282C170.739 64.7021 170.686 64.476 170.591 64.2622" stroke="#353535" stroke-miterlimit="10"/>
<path d="M178.69 49.8532C179.29 49.1297 179.627 48.1595 179.627 47.1481C179.627 45.882 179.064 44.7514 178.172 43.9868C178.254 43.662 178.299 43.3249 178.299 42.9755C178.299 41.512 177.547 40.2293 176.408 39.4811C175.952 37.6723 174.315 36.3321 172.367 36.3321C172.363 36.3321 172.359 36.3321 172.35 36.3321C169.74 34.5685 166.509 33.5613 163.006 33.5613C158.024 33.5613 153.588 35.5962 150.706 38.9673C148.979 39.477 147.713 41.0721 147.713 42.9673C147.713 43.3167 147.762 43.6538 147.841 43.9786C146.953 44.7432 146.385 45.8737 146.385 47.1399C146.385 48.1512 146.747 49.1338 147.347 49.8573" stroke="#353535" stroke-miterlimit="10"/>
<path d="M174.283 37.7709C173.152 39.7442 167.635 39.6456 162.196 40.2663C156.741 40.7021 151.726 41.6435 150.172 39.9004C148.577 38.2684 153.091 33.2529 161.362 32.4595C169.629 31.6825 175.491 35.8634 174.283 37.7709Z" fill="white" stroke="#353535" stroke-miterlimit="10"/>
<path d="M163.302 35.5674C163.825 35.4112 164.075 35.6825 164.075 35.6825C164.453 36.1882 165.263 36.5376 165.781 36.2046C166.357 35.8346 166.18 35.2755 166.044 34.8151C165.995 34.6465 165.991 34.3875 166.118 34.1162C166.168 34.0217 166.197 33.923 166.205 33.8202C166.32 32.7637 163.853 31.7277 160.774 32.0648C157.691 32.3978 155.623 33.9107 156.03 34.9096C156.433 35.921 158.747 36.1635 161.309 35.8963C162.053 35.8141 162.768 35.6948 163.413 35.5386" fill="#FFAD4A"/>
<path d="M163.302 35.5674C163.825 35.4112 164.075 35.6825 164.075 35.6825C164.453 36.1882 165.263 36.5376 165.781 36.2046C166.357 35.8346 166.18 35.2755 166.044 34.8151C165.995 34.6465 165.991 34.3875 166.118 34.1162C166.168 34.0217 166.197 33.923 166.205 33.8202C166.32 32.7637 163.853 31.7277 160.774 32.0648C157.691 32.3978 155.623 33.9107 156.03 34.9096C156.433 35.921 158.747 36.1635 161.309 35.8963C162.053 35.8141 162.768 35.6948 163.413 35.5386" stroke="#353535" stroke-miterlimit="10"/>
<path d="M151.496 38.959C151.496 38.959 152.606 39.9374 156.778 39.0289" stroke="#D6D6D6" stroke-miterlimit="10"/>
<path d="M181.025 47.3989C181.025 50.1492 172.959 52.3815 163.014 52.3815C153.07 52.3815 145 50.1533 145 47.3989" stroke="#353535" stroke-miterlimit="10"/>
<path d="M174.439 48.8254C174.122 48.3362 173.645 47.9456 173.053 47.7401C171.837 47.3249 170.525 47.8387 169.892 48.8994" stroke="#353535" stroke-miterlimit="10"/>
<path d="M160.654 47.5962C160.572 47.2468 160.383 46.9261 160.083 46.6835C159.466 46.1902 158.607 46.2149 158.023 46.6918" stroke="#353535" stroke-miterlimit="10"/>
<path d="M157.202 46.1326C156.819 45.2611 156.153 44.5088 155.245 44.0319C153.391 43.0494 151.15 43.5386 149.851 45.0843" stroke="#353535" stroke-miterlimit="10"/>
<path d="M159.18 77.463V75.916H150.391V77.463H159.18ZM158.449 80.676C158.449 79.078 156.919 77.888 154.879 77.888C152.788 77.888 151.275 79.078 151.275 80.676C151.275 82.291 152.805 83.43 154.879 83.43C156.919 83.43 158.449 82.291 158.449 80.676ZM152.635 75.202H157.14V73.689H152.635V75.202ZM162.359 73.196H160.37V84.45H162.359V79.741H164.467V78.092H162.359V73.196ZM162.716 87.986V86.405H154.369V83.991H152.363V87.986H162.716ZM153.247 80.676C153.247 79.962 153.995 79.469 154.879 79.469C155.746 79.469 156.511 79.962 156.511 80.676C156.511 81.356 155.746 81.832 154.879 81.832C153.995 81.832 153.247 81.356 153.247 80.676ZM177.068 82.121V73.213H175.079V82.121H177.068ZM166.817 82.852V84.433H175.079V88.36H177.085V82.852H166.817ZM173.787 79.758C172.002 79.18 170.268 77.497 170.268 75.134V73.927H168.211V75.236C168.211 77.531 166.749 79.316 164.539 80.115L165.746 81.696C167.157 81.203 168.806 79.792 169.248 78.245C169.911 79.639 171.492 80.863 172.648 81.288L173.787 79.758Z" fill="#3C3C3C"/>
<path d="M256.498 246.224V244.626H248.066V243.589H256.022V239.543H245.992V241.107H254.05V242.161H246.077V246.224H256.498ZM256.022 238.778V231.196H254.05V238.778H256.022ZM243.952 235.225C243.952 237.299 245.737 238.608 247.981 238.608C250.293 238.608 251.976 237.248 251.976 235.225C251.976 233.168 250.293 231.706 247.981 231.706C245.652 231.706 243.952 233.202 243.952 235.225ZM245.924 235.208C245.924 234.188 246.859 233.338 247.981 233.338C249.256 233.338 250.004 234.171 250.004 235.208C250.004 236.143 249.222 236.959 247.981 236.959C246.808 236.959 245.924 236.228 245.924 235.208ZM270.068 240.121V231.213H268.079V240.121H270.068ZM259.817 240.852V242.433H268.079V246.36H270.085V240.852H259.817ZM266.787 237.758C265.002 237.18 263.268 235.497 263.268 233.134V231.927H261.211V233.236C261.211 235.531 259.749 237.316 257.539 238.115L258.746 239.696C260.157 239.203 261.806 237.792 262.248 236.245C262.911 237.639 264.492 238.863 265.648 239.288L266.787 237.758Z" fill="#3C3C3C"/>
<path d="M68.444 239.826V233.791H66.472V235.372H60.25V233.808H58.261V239.826H68.444ZM64.483 245.028V242.546H70.195V240.982H56.51V242.546H62.494V245.028H64.483ZM68.597 247.935V246.371H60.25V243.685H58.261V247.935H68.597ZM66.472 238.245H60.25V236.919H66.472V238.245ZM83.068 242.121V233.213H81.079V242.121H83.068ZM72.817 242.852V244.433H81.079V248.36H83.085V242.852H72.817ZM79.787 239.758C78.002 239.18 76.268 237.497 76.268 235.134V233.927H74.211V235.236C74.211 237.531 72.749 239.316 70.539 240.115L71.746 241.696C73.157 241.203 74.806 239.792 75.248 238.245C75.911 239.639 77.492 240.863 78.648 241.288L79.787 239.758Z" fill="#3C3C3C"/>
<path d="M70.326 135.201V133.637H56.641V135.201H70.326ZM68.592 123.743H58.205V125.307H66.603C66.62 127.806 66.297 131.036 65.957 132.549L67.895 132.736C68.252 130.849 68.592 128.044 68.592 123.743ZM80.564 133.909L80.428 132.379C79.306 132.532 77.997 132.634 76.586 132.719V130.373C78.388 130.016 79.663 128.741 79.663 126.939C79.663 124.814 77.878 123.25 75.549 123.25C73.22 123.25 71.486 124.831 71.486 126.939C71.486 128.775 72.761 130.067 74.58 130.39V132.804C73.356 132.838 72.081 132.838 70.806 132.838C70.891 133.365 70.993 133.909 71.095 134.436C73.934 134.436 77.946 134.232 80.564 133.909ZM83.25 122.196H81.244V137.343H83.25V122.196ZM77.691 126.939C77.691 128.112 76.671 128.826 75.549 128.826C74.427 128.826 73.441 128.112 73.441 126.939C73.441 125.715 74.41 124.916 75.549 124.916C76.705 124.916 77.691 125.664 77.691 126.939Z" fill="#3C3C3C"/>
<path d="M164.246 282.885V281.253H162.359V279.196H160.336V288.053H162.359V286.183H164.246V284.585H162.359V282.885H164.246ZM162.529 291.266C162.529 289.379 160.625 288.189 157.327 288.189C154.08 288.189 152.159 289.379 152.159 291.266C152.159 293.119 154.08 294.326 157.327 294.326C160.625 294.326 162.529 293.119 162.529 291.266ZM157.327 289.787C159.35 289.787 160.506 290.348 160.506 291.266C160.506 292.184 159.35 292.728 157.327 292.728C155.355 292.728 154.199 292.184 154.199 291.266C154.199 290.348 155.355 289.787 157.327 289.787ZM150.578 283.65C150.578 285.792 152.329 287.135 154.488 287.135C156.698 287.135 158.415 285.792 158.415 283.65C158.415 281.542 156.681 280.046 154.488 280.046C152.295 280.046 150.578 281.576 150.578 283.65ZM152.516 283.633C152.516 282.562 153.298 281.661 154.488 281.661C155.729 281.661 156.511 282.545 156.511 283.633C156.511 284.789 155.678 285.639 154.488 285.639C153.315 285.639 152.516 284.806 152.516 283.633ZM177.068 288.121V279.213H175.079V288.121H177.068ZM166.817 288.852V290.433H175.079V294.36H177.085V288.852H166.817ZM173.787 285.758C172.002 285.18 170.268 283.497 170.268 281.134V279.927H168.211V281.236C168.211 283.531 166.749 285.316 164.539 286.115L165.746 287.696C167.157 287.203 168.806 285.792 169.248 284.245C169.911 285.639 171.492 286.863 172.648 287.288L173.787 285.758Z" fill="#3C3C3C"/>
<path d="M257.195 130.781V129.183H243.51V130.781H249.324V131.75C246.553 131.937 244.955 132.957 244.955 134.47C244.955 136.153 246.927 137.19 250.344 137.19C253.778 137.19 255.75 136.153 255.75 134.47C255.75 132.957 254.135 131.937 251.313 131.75V130.781H257.195ZM256.498 127.058C254.475 126.973 252.18 126.021 251.568 124.491H255.835V122.91H244.921V124.491H249.171C248.644 126.021 246.587 126.99 244.224 127.092C244.496 127.602 244.785 128.112 245.057 128.639C247.454 128.435 249.579 127.313 250.344 125.817C251.228 127.279 253.438 128.452 255.648 128.639L256.498 127.058ZM253.727 134.487C253.727 135.218 252.384 135.643 250.327 135.643C248.287 135.643 246.978 135.218 246.978 134.487C246.978 133.722 248.287 133.297 250.327 133.297C252.384 133.297 253.727 133.722 253.727 134.487ZM270.068 131.121V122.213H268.079V131.121H270.068ZM259.817 131.852V133.433H268.079V137.36H270.085V131.852H259.817ZM266.787 128.758C265.002 128.18 263.268 126.497 263.268 124.134V122.927H261.211V124.236C261.211 126.531 259.749 128.316 257.539 129.115L258.746 130.696C260.157 130.203 261.806 128.792 262.248 127.245C262.911 128.639 264.492 129.863 265.648 130.288L266.787 128.758Z" fill="white"/>
<path d="M181.688 261.714C181.586 262.229 181.354 262.69 181.024 263.07C180.699 263.451 180.267 263.747 179.781 263.92C179.232 264.114 178.551 264.343 177.757 264.584C176.966 264.82 176.062 265.078 175.06 265.327V270.64C175.06 271.946 173.999 273.003 172.697 273.003C171.387 273.003 170.33 271.942 170.33 270.64V269.96C170.009 270.125 169.641 270.222 169.257 270.222C167.951 270.222 166.894 269.161 166.894 267.855V266.722C166.894 266.722 166.894 266.722 166.89 266.722C165.58 266.836 164.227 266.908 162.836 266.908C160.71 266.908 158.513 266.752 156.298 266.367V272.876C156.298 274.187 155.237 275.243 153.935 275.243C152.625 275.243 151.568 274.182 151.568 272.876V265.408C151.568 265.332 151.572 265.26 151.581 265.184C150.435 264.803 149.298 264.347 148.178 263.814C147.747 264.241 147.16 264.503 146.509 264.503C146.111 264.503 145.739 264.406 145.414 264.233C145.135 265.218 144.226 265.94 143.144 265.94C141.834 265.94 140.777 264.879 140.777 263.578V258.396C140.777 258.079 141.044 257.77 141.424 257.808C142.206 257.884 143.123 257.893 144.138 257.791C144.577 257.753 145.034 257.69 145.507 257.605C146.559 257.419 147.688 257.123 148.867 256.684C153.703 254.883 159.379 250.673 163.935 241.81C164.248 242.136 164.629 242.41 165.06 242.6C173.129 246.223 179.211 253.214 181.688 261.701C181.688 261.709 181.688 261.709 181.688 261.714Z" fill="white" stroke="#FFAD4A" stroke-miterlimit="10"/>
<path d="M146.386 262.872C145.494 262.36 144.611 261.794 143.753 261.16" stroke="#FFAD4A" stroke-miterlimit="10"/>
<path d="M175.06 265.323C173.446 265.729 171.586 266.118 169.557 266.405" stroke="#FFAD4A" stroke-miterlimit="10"/>
<path d="M178.146 257.495C179.109 259.207 177.351 262.153 173.902 263.172C170.453 264.195 167.376 262.681 167.249 260.72C167.11 258.738 169.248 257.068 171.856 256.274C174.477 255.521 177.182 255.758 178.146 257.495Z" fill="#FF4800"/>
<path d="M160.913 259.072C161.462 260.539 159.091 262.555 155.503 262.825C151.914 263.1 149.264 261.473 149.585 259.938C149.898 258.387 152.358 257.415 155.072 257.191C157.789 257.001 160.368 257.588 160.913 259.072Z" fill="#FF4800"/>
<path d="M148.457 259.807C148.538 260.091 148.136 260.45 147.549 260.467C146.961 260.488 146.534 260.154 146.598 259.867C146.657 259.575 147.067 259.414 147.515 259.397C147.959 259.389 148.377 259.524 148.457 259.807Z" stroke="#353535" stroke-miterlimit="10"/>
<path d="M166.492 254.773C166.573 255.057 166.171 255.416 165.584 255.433C164.996 255.454 164.569 255.12 164.633 254.833C164.692 254.541 165.102 254.38 165.55 254.363C165.994 254.351 166.412 254.486 166.492 254.773Z" stroke="#353535" stroke-miterlimit="10"/>
<path d="M165.554 264.664C165.634 264.947 165.233 265.306 164.645 265.323C164.058 265.344 163.631 265.01 163.694 264.723C163.753 264.431 164.163 264.271 164.611 264.254C165.055 264.245 165.474 264.376 165.554 264.664Z" stroke="#353535" stroke-miterlimit="10"/>
<path d="M164.878 246.256C164.037 245.572 162.781 245.589 161.437 246.062C159.59 248.818 157.637 250.965 155.676 252.626C155.706 252.791 155.748 252.956 155.816 253.112C156.517 254.761 159.797 254.921 162.663 252.749C165.533 250.58 166.273 247.377 164.878 246.256Z" fill="#FF4800"/>
<path d="M140.718 262.935C140.262 262.533 139.814 262.119 139.37 261.68C138.82 261.139 138.892 260.221 139.526 259.773C140.118 259.355 140.819 258.18 140.819 258.18" stroke="#353535" stroke-miterlimit="10"/>
<path d="M151.56 268.734C148.935 268.016 146.543 266.988 144.332 265.615" stroke="#353535" stroke-miterlimit="10"/>
<path d="M167.909 269.799C166.252 269.96 164.531 270.053 162.769 270.053C160.465 270.053 158.31 269.926 156.285 269.664" stroke="#353535" stroke-miterlimit="10"/>
<path d="M187.102 259.976L186.51 262.162C186.451 262.39 186.409 262.622 186.366 262.85C186.079 264.431 185.394 265.488 184.016 266.025C183.319 266.295 182.579 266.574 181.979 266.773C180.276 267.343 177.892 268.054 175.06 268.666" stroke="#353535" stroke-miterlimit="10"/>
<path d="M163.931 241.814C163.136 240.998 162.764 239.849 163.102 238.758C163.441 237.68 164.54 237 165.816 237C166.336 237 166.881 237.11 167.418 237.355C176.941 241.632 184.139 249.849 187.14 259.837C187.169 259.951 187.064 260.057 186.954 260.023C186.332 259.71 185.698 259.562 185.09 259.562C183.805 259.562 182.621 260.238 181.844 261.54C181.844 261.54 181.801 261.616 181.73 261.591C181.649 261.561 181.62 261.477 181.586 261.358C179.046 253.028 173.018 246.185 165.064 242.609C164.624 242.41 164.244 242.14 163.931 241.814Z" stroke="#353535" stroke-miterlimit="10"/>
<path d="M249.649 85.7107C253.448 85.7107 256.523 88.7898 256.523 92.5846C256.523 94.6515 255.611 96.5073 254.163 97.7674C250.63 97.7022 247.322 97.4475 244.43 97.0452C243.399 95.844 242.775 94.2888 242.775 92.5846C242.775 88.7864 245.855 85.7107 249.649 85.7107Z" fill="#FF7375" stroke="white"/>
<path d="M257.855 85.7107C261.654 85.7107 264.729 88.7898 264.729 92.5846C264.729 94.5406 263.907 96.3035 262.589 97.5592C260.507 97.7068 258.295 97.7859 256.003 97.7859C255.096 97.7859 254.205 97.7726 253.327 97.749C253.112 97.5598 252.909 97.3582 252.719 97.1442C251.64 95.9298 250.985 94.336 250.985 92.5846C250.985 88.7859 254.057 85.7107 257.855 85.7107Z" fill="white" stroke="white"/>
<path d="M261.166 94.2992C261.166 90.501 264.245 87.4253 268.04 87.4253C271.835 87.4253 274.914 90.5046 274.914 94.2992C274.914 94.69 274.879 95.0725 274.816 95.4471C271.833 96.476 267.328 97.2562 262.017 97.5958C261.477 96.6144 261.166 95.494 261.166 94.2992Z" fill="white" stroke="white"/>
<path d="M253.075 97.7421C254.172 95.4073 256.54 93.791 259.288 93.791C261.867 93.791 264.114 95.215 265.293 97.3213C262.456 97.6209 259.313 97.7859 256.003 97.7859C255.012 97.7859 254.034 97.7713 253.075 97.7421Z" fill="white" stroke="white"/>
<path d="M251.914 95.819C251.914 91.7482 248.614 88.4451 244.54 88.4451C240.465 88.4451 237.166 91.7444 237.166 95.819C237.166 95.8686 237.174 95.9183 237.174 95.9717C240.515 97.0944 245.609 97.9078 251.52 98.1827C251.769 97.4381 251.914 96.6476 251.914 95.819Z" fill="white"/>
<path d="M268.228 96.8271C269.624 96.8271 270.756 95.6953 270.756 94.2991C270.756 92.9029 269.624 91.7711 268.228 91.7711C266.832 91.7711 265.7 92.9029 265.7 94.2991C265.7 95.6953 266.832 96.8271 268.228 96.8271Z" stroke="#FF7375" stroke-miterlimit="10"/>
<path d="M272.592 96.6133C272.947 95.9183 273.149 95.1355 273.149 94.303C273.149 91.481 270.862 89.1936 268.04 89.1936C265.218 89.1936 262.931 91.481 262.931 94.303" stroke="#FF7375" stroke-miterlimit="10"/>
<path d="M253.755 86.4556C252.582 85.6689 251.169 85.2107 249.65 85.2107C247.19 85.2107 245.014 86.4136 243.673 88.2618M246.618 88.743C247.45 88.0862 248.504 87.6928 249.65 87.6928C250.49 87.6928 251.28 87.9067 251.971 88.2771" stroke="white" stroke-miterlimit="10"/>
<path d="M233.626 97.7627C237.357 99.989 246.621 101.73 255.993 101.73C265.333 101.73 274.8 99.6873 278.45 97.7742" stroke="white" stroke-miterlimit="10"/>
<path d="M252.747 92.5807C252.747 89.7587 255.034 87.4713 257.856 87.4713C259.62 87.4713 261.174 88.3649 262.095 89.7243" stroke="#FF7375" stroke-miterlimit="10"/>
<path d="M263.832 88.2618C262.492 86.4136 260.315 85.2107 257.856 85.2107C254.117 85.2107 251.028 87.9907 250.547 91.5994" stroke="white" stroke-miterlimit="10"/>
<path d="M255.332 92.5845C255.332 91.1869 256.462 90.0565 257.86 90.0565C259.257 90.0565 260.387 91.1869 260.387 92.5845C260.387 92.8556 260.345 93.1153 260.265 93.3597" stroke="#FF7375" stroke-miterlimit="10"/>
<path d="M254.771 98.2783C255.63 96.6591 257.329 95.5555 259.288 95.5555C261.125 95.5555 262.729 96.5255 263.63 97.9804" stroke="#FF7375" stroke-miterlimit="10"/>
<path d="M266.055 97.7398C264.92 95.124 262.32 93.291 259.288 93.291C256.076 93.291 252.987 95.376 251.975 98.24" stroke="white" stroke-miterlimit="10"/>
<path d="M279 92.8518C279 105.553 268.64 114.004 255.939 114.004C243.238 114.004 233 105.553 233 92.8518" stroke="white" stroke-miterlimit="10"/>
<path d="M239.499 96.6361C239.457 96.3688 239.427 96.0977 239.427 95.8189C239.427 92.9969 241.714 90.7095 244.536 90.7095C247.358 90.7095 249.646 92.9969 249.646 95.8189C249.646 96.617 249.458 97.3655 249.134 98.0375" stroke="white" stroke-miterlimit="10"/>
<path d="M251.52 98.1827C251.773 97.4419 251.914 96.6476 251.914 95.819C251.914 91.7482 248.614 88.4451 244.54 88.4451C240.465 88.4451 237.166 91.7444 237.166 95.819C237.166 95.8686 237.174 95.9183 237.174 95.9717" stroke="white" stroke-miterlimit="10"/>
<path d="M249.138 98.0375C249.462 97.3655 249.649 96.6132 249.649 95.8189C249.649 92.9969 247.362 90.7095 244.54 90.7095C241.718 90.7095 239.431 92.9969 239.431 95.8189" stroke="#FF7375" stroke-miterlimit="10"/>
<path d="M242.451 97.2395C242.176 96.8348 242.012 96.346 242.012 95.819C242.012 94.4213 243.143 93.291 244.54 93.291C245.938 93.291 247.068 94.4213 247.068 95.819C247.068 96.6018 246.713 97.2968 246.155 97.7627" stroke="white" stroke-miterlimit="10"/>
<path d="M246.155 97.7627C246.713 97.3006 247.068 96.6018 247.068 95.819C247.068 94.4213 245.938 93.291 244.54 93.291C243.143 93.291 242.012 94.4213 242.012 95.819C242.012 96.346 242.173 96.8348 242.451 97.2395" stroke="#FF7375" stroke-miterlimit="10"/>
<path d="M273.474 89.3195C276.919 90.2704 279 91.5038 279 92.8518C279 95.8533 268.701 98.2858 256 98.2858C243.299 98.2858 233 95.8533 233 92.8518C233 90.9233 237.258 89.2278 243.677 88.2617" stroke="white" stroke-miterlimit="10"/>
<path d="M275.254 95.8229C275.357 95.3302 275.414 94.8224 275.414 94.2992C275.414 90.2285 272.115 86.9253 268.04 86.9253C264.263 86.9253 261.147 89.7664 260.716 93.4323" stroke="white" stroke-miterlimit="10"/>
<path d="M254.53 93.3121C256.294 92.1706 256.528 89.3995 255.054 87.1226C253.581 84.8458 250.956 83.9253 249.193 85.0668C247.43 86.2082 247.195 88.9793 248.669 91.2562C250.142 93.5331 252.767 94.4535 254.53 93.3121Z" fill="#FF7375" stroke="white" stroke-miterlimit="10"/>
<path d="M254.018 92.2133C254.88 91.6552 254.994 90.2985 254.272 89.1831C253.55 88.0677 252.265 87.6159 251.403 88.174C250.541 88.7321 250.427 90.0888 251.149 91.2042C251.871 92.3196 253.155 92.7714 254.018 92.2133Z" fill="white"/>
<g clip-path="url(#clip0)">
<path d="M248.045 197.384L247.163 197.73C247.431 197.615 247.738 197.499 248.045 197.384Z" fill="#FFB79E"/>
<path d="M275.257 196.384L259.022 196C258.523 196 249.58 196.192 246.202 198.191C242.825 200.191 240.407 205.342 235.878 209.61C232.769 212.531 230.351 220.566 238.718 220.682C247.43 220.797 252.727 222.412 255.03 217.222C256.604 213.723 254.761 208.418 263.013 205.765C264.664 205.227 266.391 204.919 268.118 204.804L275.833 204.266C277.867 204.266 279.479 202.613 279.479 200.613C279.479 198.614 277.905 196.346 275.257 196.384Z" fill="#FF4800"/>
<path d="M242.019 216.722C241.636 216.722 241.252 216.722 240.83 216.722V217.683C241.943 217.683 242.902 217.721 243.747 217.721C247.47 217.721 248.391 217.644 250.156 215.376C250.54 214.876 250.924 214.031 251.308 213.108C252.69 209.955 254.801 205.227 262.093 202.882C263.897 202.305 265.854 201.92 267.889 201.767L275.757 201.19C277.407 200.959 278.367 200.575 278.559 200.075C278.635 199.806 278.597 199.575 278.367 199.345C277.292 198.191 275.987 197.615 274.49 197.615C274.452 197.615 274.452 197.615 274.413 197.615C271.266 197.615 268.311 200.229 267.658 200.844C266.315 200.959 265.01 201.152 263.782 201.459C264.05 200.46 264.665 199.575 265.624 198.806C268.196 196.807 272.341 196.423 272.84 196.5L272.878 196.384L268.656 196.269C267.466 196.653 266.277 197.192 265.24 197.922C263.859 198.96 263.053 200.229 262.784 201.728C262.477 201.805 262.17 201.882 261.863 201.997C261.517 202.113 261.172 202.228 260.865 202.343C259.905 198.614 261.402 196.769 262.208 196.077L260.903 196.038C260.75 196.231 260.558 196.5 260.404 196.769C259.752 197.884 259.138 199.806 259.867 202.651C259.291 202.882 258.754 203.151 258.255 203.42C257.564 202.689 256.988 201.959 256.528 201.19L255.683 201.651C256.105 202.42 256.681 203.189 257.372 203.881C257.027 204.073 256.72 204.304 256.413 204.535C250.617 203.881 248.161 197.691 248.084 197.422C247.777 197.538 247.47 197.615 247.163 197.73C247.278 198.076 249.619 204.112 255.415 205.38C254.57 206.111 253.879 206.841 253.304 207.61C248.698 206.38 244.591 202.113 243.363 200.729C243.171 200.959 242.941 201.228 242.749 201.459C244.092 202.958 248.045 207.034 252.69 208.456C251.653 209.955 251.001 211.455 250.425 212.723C250.233 213.185 250.041 213.646 249.849 214.031C246.894 207.533 241.521 206.495 238.872 206.38C238.604 206.688 238.335 207.034 238.066 207.341C240.024 207.264 246.203 207.649 249.235 214.992C247.853 216.683 247.239 216.76 243.747 216.76C243.516 216.76 243.286 216.76 243.017 216.76C241.981 211.993 238.45 210.032 236.224 209.263C236.109 209.379 235.994 209.494 235.878 209.609C235.763 209.725 235.61 209.879 235.495 210.032C237.375 210.571 240.983 212.185 242.019 216.722ZM274.413 198.576C274.452 198.576 274.452 198.576 274.49 198.576C275.603 198.576 276.601 198.999 277.484 199.806C277.1 199.96 276.371 200.152 275.68 200.229L269.309 200.69C270.46 199.806 272.418 198.576 274.413 198.576Z" fill="#FFB79E"/>
<path d="M237.375 216.645C237.491 216.837 237.529 216.876 237.606 216.953L237.951 216.491L238.258 216.261C238.22 216.222 238.22 216.184 238.181 216.107C236.608 213.723 235.034 212.916 233.729 212.801C233.614 213.108 233.461 213.416 233.384 213.762C234.766 213.723 236.109 214.684 237.375 216.645Z" fill="#FFB79E"/>
<path d="M255.031 200.152L255.952 199.845C255.377 198.23 255.53 196.884 255.684 196.154C255.377 196.192 255.031 196.192 254.686 196.231C254.494 197.153 254.455 198.537 255.031 200.152Z" fill="#FFB79E"/>
<path d="M264.588 220.144C263.321 220.144 262.093 219.721 261.095 218.913C260.097 219.721 258.869 220.144 257.602 220.144C256.336 220.144 255.069 219.682 254.071 218.875L254.685 218.144C255.53 218.836 256.528 219.221 257.602 219.221C258.792 219.221 259.905 218.76 260.788 217.952L261.133 217.645L261.402 217.914C262.285 218.721 263.398 219.182 264.588 219.182C265.893 219.182 267.159 218.606 268.004 217.645L268.311 217.299L268.656 217.568C269.386 218.144 270.23 218.414 271.113 218.414C272.993 218.414 274.605 217.068 275.028 215.261L275.066 214.992L275.335 214.915C277.023 214.338 278.136 212.724 278.136 210.955C278.136 210.109 277.906 209.341 277.446 208.649L277.254 208.379L277.446 208.11C277.906 207.418 278.136 206.611 278.136 205.804C278.136 205.073 277.945 204.381 277.599 203.728L278.444 203.266C278.866 204.035 279.096 204.919 279.096 205.804C279.096 206.726 278.866 207.611 278.405 208.379C278.866 209.148 279.096 210.071 279.096 210.955C279.096 213.031 277.829 214.915 275.91 215.722C275.335 217.875 273.377 219.375 271.113 219.375C270.153 219.375 269.194 219.106 268.388 218.567C267.39 219.567 266.008 220.144 264.588 220.144Z" fill="#353535"/>
<path d="M267.966 215.799C267.467 215.799 267.006 215.645 266.661 215.338L267.275 214.569C267.467 214.723 267.735 214.838 268.004 214.838C268.541 214.838 269.04 214.454 269.155 213.915L270.077 214.108C269.808 215.069 268.964 215.799 267.966 215.799Z" fill="#353535"/>
<path d="M272.264 215.3V214.338C272.686 214.338 273.109 214.185 273.416 213.915C274.106 213.339 274.298 212.378 273.915 211.57L274.759 211.147C275.373 212.339 275.028 213.8 273.991 214.646C273.492 215.069 272.917 215.3 272.264 215.3Z" fill="#353535"/>
</g>
<path d="M58.4228 193.572L58.3087 193.661C57.8651 193.995 57.7721 194.624 58.1059 195.068L60.6917 198.524L62.4155 197.231L59.8297 193.775C59.5002 193.332 58.8664 193.239 58.4228 193.572Z" fill="#D3AF97" stroke="#353535" stroke-miterlimit="10"/>
<path d="M49.4991 205.09C48.6837 205.568 48.8865 207.148 49.9681 208.61C51.0497 210.072 52.6004 210.849 53.42 210.355" stroke="#353535" stroke-miterlimit="10"/>
<path d="M53.4199 210.355C60.9998 205.783 68.4276 200.785 75.6694 195.381C76.4553 194.793 76.1849 193.243 75.0821 191.908C73.9751 190.577 72.4541 189.951 71.6725 190.518C64.4517 195.791 57.0493 200.654 49.499 205.09" stroke="#353535" stroke-miterlimit="10"/>
<path d="M53.4199 210.355C54.2396 209.86 54.0199 208.289 52.934 206.844C51.8482 205.399 50.3145 204.613 49.499 205.09" stroke="#353535" stroke-miterlimit="10"/>
<path d="M53.4198 210.355C52.6001 210.849 52.8156 212.425 53.9099 213.866C55.0042 215.311 56.5675 216.063 57.3914 215.552" stroke="#353535" stroke-miterlimit="10"/>
<path d="M57.3915 215.556C65.001 210.849 72.4541 205.711 79.7129 200.172C80.4987 199.572 80.2241 198.022 79.1044 196.707C77.9848 195.393 76.4511 194.798 75.6694 195.381C68.4276 200.785 60.9998 205.783 53.4199 210.355" stroke="#353535" stroke-miterlimit="10"/>
<path d="M57.3915 215.556C58.2154 215.045 57.9873 213.477 56.8887 212.049C55.7902 210.621 54.2396 209.86 53.4199 210.355" stroke="#353535" stroke-miterlimit="10"/>
<path d="M57.3916 215.556C56.5677 216.063 56.7916 217.639 57.9028 219.063C59.0098 220.491 60.59 221.213 61.4181 220.689" stroke="#353535" stroke-miterlimit="10"/>
<path d="M61.4181 220.689C69.0529 215.843 76.5272 210.57 83.8071 204.896C84.5972 204.279 84.3098 202.737 83.1817 201.44C82.0536 200.147 80.5072 199.576 79.7171 200.172C72.4542 205.711 65.001 210.845 57.3916 215.556" stroke="#353535" stroke-miterlimit="10"/>
<path d="M61.4183 220.689C62.2464 220.161 62.0056 218.598 60.8944 217.191C59.7832 215.784 58.2199 215.049 57.396 215.556" stroke="#353535" stroke-miterlimit="10"/>
<path d="M61.4179 220.689C60.5898 221.213 60.8222 222.781 61.9461 224.192C63.0699 225.599 64.6586 226.3 65.4909 225.759" stroke="#353535" stroke-miterlimit="10"/>
<path d="M65.491 225.755C73.1554 220.77 80.6465 215.357 87.9391 209.543C88.7292 208.914 88.4376 207.372 87.2926 206.096C86.1518 204.82 84.5928 204.279 83.8069 204.892C76.527 210.57 69.0528 215.843 61.418 220.689" stroke="#353535" stroke-miterlimit="10"/>
<path d="M65.491 225.755C66.3191 225.214 66.0741 223.651 64.9459 222.261C63.8178 220.871 62.2419 220.165 61.418 220.685" stroke="#353535" stroke-miterlimit="10"/>
<path d="M73.5358 196.568C72.4837 195.292 71.4317 194.008 70.3881 192.715C70.743 192.461 71.0979 192.203 71.4528 191.946C71.9091 191.612 72.0021 190.999 71.6598 190.577C71.6049 190.509 71.55 190.442 71.4951 190.374C71.1528 189.951 70.5064 189.875 70.0459 190.205C63.9279 194.62 57.6789 198.74 51.3243 202.555C50.8511 202.838 50.737 203.438 51.0708 203.894C51.1258 203.966 51.1765 204.038 51.2314 204.11C51.5694 204.566 52.2285 204.701 52.706 204.41C52.9637 204.254 53.2214 204.097 53.4749 203.941C54.2439 204.968 55.0171 205.99 55.7945 207.013C56.6184 208.094 58.1268 208.479 59.369 207.984C60.6027 209.577 61.8449 211.157 63.0913 212.729C63.7631 213.578 65.0644 213.768 65.9855 213.152C66.07 213.092 66.1587 213.038 66.2432 212.978C67.1643 212.362 67.3587 211.178 66.6869 210.342C66.3573 209.932 66.0235 209.518 65.694 209.108C65.8207 209.049 65.9433 208.99 66.0616 208.91C66.1672 208.838 66.2728 208.766 66.3784 208.694C67.5108 207.929 67.7474 206.467 66.9193 205.441C67.0502 205.606 67.1812 205.766 67.3122 205.931C68.1403 206.962 69.7332 207.16 70.8528 206.37C70.9585 206.294 71.0641 206.222 71.1697 206.146C72.2894 205.356 72.5175 203.886 71.6852 202.876C71.1993 202.285 70.7134 201.693 70.2318 201.097C71.0303 201.258 71.9049 201.097 72.6105 200.586C72.7288 200.502 72.8513 200.413 72.9696 200.328C74.2372 199.407 74.4865 197.721 73.5358 196.568Z" fill="#FF4800"/>
<path d="M76.016 216.337L75.902 216.426C75.4583 216.76 75.3654 217.389 75.6992 217.833L83.3297 228.028C83.4945 228.248 83.8114 228.294 84.0311 228.13L84.9564 227.437C85.1761 227.272 85.2226 226.955 85.0578 226.735L77.423 216.54C77.0892 216.097 76.4597 216.008 76.016 216.337Z" fill="#D3AF97"/>
<path d="M76.016 216.337L75.902 216.426C75.4583 216.76 75.3654 217.389 75.6992 217.833L83.3297 228.028C83.4945 228.248 83.8114 228.294 84.0311 228.13L84.9564 227.437C85.1761 227.272 85.2226 226.955 85.0578 226.735L77.423 216.54C77.0892 216.097 76.4597 216.008 76.016 216.337Z" fill="#D3AF97" stroke="#353535" stroke-miterlimit="10"/>
<defs>
<clipPath id="clip0">
<rect width="46.48" height="25.0277" fill="white" transform="translate(233 196)"/>
</clipPath>
</defs>
</svg>
